<?xml version="1.0" encoding="utf-8"?>
<!-- Generator: Adobe Illustrator 27.5.0, SVG Export Plug-In . SVG Version: 6.00 Build 0)  -->
<svg version="1.1" xmlns="http://www.w3.org/2000/svg" xmlns:xlink="http://www.w3.org/1999/xlink" x="0px" y="0px"
	 viewBox="0 0 500 500" style="enable-background:new 0 0 500 500;" xml:space="preserve">
<g id="Background_Simple">
	<g>
		<path style="opacity:0.7;fill:#FFFFFF;" d="M67.931,167.086c0,0-27.877,71.988,11.297,144.503
			c39.174,72.516,119.879,110.802,184.469,143.548c64.59,32.746,131.661,16.799,163.534-36.838
			c31.873-53.637-11.845-91.928-11.897-168.418c-0.051-76.49,11.447-96.742-29.963-161.364
			c-41.41-64.623-143.059-78.925-219.9-30.996C88.631,105.45,67.931,167.086,67.931,167.086z"/>
	</g>
	<g>
		<path style="fill:#92E3A9;" d="M232.691,28.845c124.035-11.047,124.245,58.934,180.132,124.129
			c55.887,65.195,67.847,94.754,46.779,169.908S367.538,456.951,279.71,423.57s-138.14-1.325-193.537-30.967
			c-55.397-29.643-75.969-86.913-35.419-154.41S79.75,42.466,232.691,28.845z"/>
		<path style="opacity:0.7;fill:#FFFFFF;" d="M232.691,28.845c124.035-11.047,124.245,58.934,180.132,124.129
			c55.887,65.195,67.847,94.754,46.779,169.908S367.538,456.951,279.71,423.57s-138.14-1.325-193.537-30.967
			c-55.397-29.643-75.969-86.913-35.419-154.41S79.75,42.466,232.691,28.845z"/>
	</g>
</g>
<g id="Bubbles">
	<g>
		<g>
			<path style="fill:none;stroke:#263238;stroke-linecap:round;stroke-linejoin:round;stroke-miterlimit:10;" d="M426.937,323.714
				l-0.774,6.972l13.605-15.911c1.655,0.174,3.292,0.262,4.903,0.269"/>
			<path style="fill:none;stroke:#263238;stroke-linecap:round;stroke-linejoin:round;stroke-miterlimit:10;" d="M409.885,275.435
				c-1.766,2.706-2.901,5.72-3.261,8.958c-1.291,11.63,7.823,22.629,21.601,27.714l-0.694,6.253"/>
			<path style="fill:none;stroke:#263238;stroke-linecap:round;stroke-linejoin:round;stroke-miterlimit:10;" d="M415.177,269.643
				c-0.899,0.729-1.74,1.501-2.517,2.312"/>
			<path style="fill:none;stroke:#263238;stroke-linecap:round;stroke-linejoin:round;stroke-miterlimit:10;" d="M466.219,269.642
				c-5.613-3.977-12.829-6.766-20.885-7.66c-8.572-0.952-16.686,0.397-23.259,3.419"/>
			<path style="fill:none;stroke:#263238;stroke-linecap:round;stroke-linejoin:round;stroke-miterlimit:10;" d="M454.139,314.116
				c13.035-2.691,22.847-10.989,24.045-21.778c0.837-7.537-2.694-14.812-9.034-20.383"/>
			<path style="fill:none;stroke:#263238;stroke-linecap:round;stroke-linejoin:round;stroke-miterlimit:10;" d="M422.077,277.365
				c2.194,0.421,4.551-0.077,6.386-1.351c1.619,1.257,3.239,2.514,4.858,3.771c-0.346,0.105-0.31-0.612,0.05-0.638
				s0.625,0.311,0.874,0.573c1.148,1.207,3.063,1.25,4.69,0.896c1.627-0.353,3.224-1.019,4.887-0.932
				c0.99,0.052,1.943,0.369,2.889,0.664c6.679,2.077,13.632,3.108,20.551,4.132"/>
			<path style="fill:none;stroke:#263238;stroke-linecap:round;stroke-linejoin:round;stroke-miterlimit:10;" d="M416.336,284.479
				c1.033-0.06,6.575-0.011,7.375-0.667c0.453,0.789,0.906,1.578,1.359,2.367c0.501-0.484,1.001-0.968,1.502-1.452
				c0.256,0.982,0.513,1.963,0.769,2.945c1.131,0.271,0.98-1.915,1.948-2.56c0.57-0.379,1.391-0.04,1.768,0.531
				c0.377,0.571,0.427,1.29,0.467,1.974c2.279,0.186,4.557,0.373,6.836,0.559c0.444,0.036,0.889,0.073,1.333,0.109
				c0.47-0.719,1.185-1.274,1.998-1.55c-0.249,1.587,1.742,2.48,3.316,2.802c7.78,1.592,15.606,2.963,23.465,4.11"/>
			<path style="fill:none;stroke:#263238;stroke-linecap:round;stroke-linejoin:round;stroke-miterlimit:10;" d="M419.377,295.337
				c0.638,0.44,1.407-0.375,2.174-0.482c0.754-0.106,1.4,0.49,2.08,0.832c0.681,0.342,1.798,0.202,1.838-0.558
				c0.161,1.006,1.402,1.362,2.411,1.504c8.753,1.228,17.506,2.456,26.259,3.684"/>
		</g>
		<g>
			<path style="fill:none;stroke:#263238;stroke-linecap:round;stroke-linejoin:round;stroke-miterlimit:10;" d="M68.011,261.179
				l10.516,14.159l-2.11-18.525c0,0,3.569-1.668,7.194-4.292c10.781-7.805,15.122-20.35,11.168-30.459
				C92.017,215,85.508,210.2,77.306,208.214"/>
			<path style="fill:none;stroke:#263238;stroke-linecap:round;stroke-linejoin:round;stroke-miterlimit:10;" d="M26.449,238.842
				c-0.306,3.216,0.09,6.413,1.276,9.447c4.262,10.898,17.445,16.4,32.007,14.498"/>
			<path style="fill:none;stroke:#263238;stroke-linecap:round;stroke-linejoin:round;stroke-miterlimit:10;" d="M28.442,231.253
				c-0.457,1.064-0.843,2.138-1.154,3.217"/>
			<path style="fill:none;stroke:#263238;stroke-linecap:round;stroke-linejoin:round;stroke-miterlimit:10;" d="M73.636,207.529
				c-6.818-0.913-14.504-0.028-22.052,2.925c-8.032,3.142-14.59,8.107-19.005,13.838"/>
			<path style="fill:none;stroke:#263238;stroke-linecap:round;stroke-linejoin:round;stroke-miterlimit:10;" d="M38.141,234.884
				c2.139-0.647,3.993-2.184,5.026-4.165c2.018,0.36,4.036,0.72,6.054,1.081c-0.258,0.254-0.559-0.398-0.252-0.588
				c0.308-0.19,0.698-0.015,1.041,0.101c1.577,0.535,3.292-0.317,4.569-1.387c1.277-1.069,2.381-2.401,3.894-3.097
				c0.9-0.414,1.892-0.576,2.867-0.755c6.879-1.266,13.514-3.584,20.117-5.894"/>
			<path style="fill:none;stroke:#263238;stroke-linecap:round;stroke-linejoin:round;stroke-miterlimit:10;" d="M36.365,243.851
				c0.887-0.533,5.817-3.066,6.22-4.018c0.768,0.488,1.536,0.976,2.304,1.464c0.218-0.661,0.437-1.322,0.655-1.984
				c0.683,0.75,1.367,1.5,2.05,2.25c1.127-0.286-0.023-2.151,0.535-3.172c0.328-0.6,1.213-0.682,1.812-0.352
				c0.599,0.331,0.978,0.944,1.331,1.53c2.104-0.894,4.208-1.788,6.313-2.682c0.41-0.174,0.821-0.349,1.231-0.523
				c0.082-0.855,0.458-1.679,1.049-2.301c0.517,1.522,2.695,1.386,4.239,0.939c7.629-2.207,15.195-4.63,22.687-7.267"/>
			<path style="fill:none;stroke:#263238;stroke-linecap:round;stroke-linejoin:round;stroke-miterlimit:10;" d="M44.103,252.052
				c0.769,0.093,1.071-0.986,1.701-1.437c0.619-0.444,1.467-0.217,2.229-0.231c0.762-0.014,1.686-0.656,1.368-1.349
				c0.61,0.816,1.875,0.554,2.834,0.211c8.321-2.981,16.642-5.962,24.963-8.944"/>
		</g>
	</g>
</g>
<g id="Typewritter">
	<g>
		<g>
			<g>
				<defs>
					<path id="XMLID_89_" d="M372.931,331.818H123.593c-4.854,0-8.789-3.935-8.789-8.789V98.412c0-4.854,3.935-8.789,8.789-8.789
						h249.338c4.854,0,8.789,3.935,8.789,8.789v224.617C381.72,327.883,377.785,331.818,372.931,331.818z"/>
				</defs>
				<use xlink:href="#XMLID_89_"  style="overflow:visible;fill:#92E3A9;"/>
				<clipPath id="XMLID_00000169556642409109452750000011783671331031994528_">
					<use xlink:href="#XMLID_89_"  style="overflow:visible;"/>
				</clipPath>
				<path style="opacity:0.2;clip-path:url(#XMLID_00000169556642409109452750000011783671331031994528_);" d="M381.722,222.293
					v101.001c0,4.704-3.822,8.526-8.526,8.526h-249.87c-4.704,0-8.526-3.822-8.526-8.526v-20h0.533v13.473
					c0,5.393,4.365,9.758,9.758,9.758h241.393c5.393,0,9.758-4.365,9.758-9.758v-79.498c0-3.754-3.046-6.79-6.79-6.79H114.799
					v-8.186H381.722z"/>
				
					<use xlink:href="#XMLID_89_"  style="overflow:visible;fill:none;stroke:#263238;stroke-linecap:round;stroke-linejoin:round;stroke-miterlimit:10;"/>
			</g>
			<path style="fill:#263238;" d="M358.484,251.049V239.48c0-2.366-1.918-4.284-4.284-4.284H142.323
				c-2.366,0-4.284,1.918-4.284,4.284v11.569c0,2.366-1.918,4.284-4.284,4.284l0,0c-2.366,0-4.284,1.918-4.284,4.284v22.834
				c0,10.964,8.888,19.853,19.853,19.853l0,0c1.76,0,3.186,1.426,3.186,3.186v6.841c0,5.257,4.262,9.519,9.519,9.519h172.465
				c5.257,0,9.519-4.262,9.519-9.519v-6.841c0-1.76,1.426-3.186,3.186-3.186l0,0c10.964,0,19.853-8.888,19.853-19.853v-22.834
				c0-2.366-1.918-4.284-4.284-4.284l0,0C360.402,255.333,358.484,253.415,358.484,251.049z"/>
			<g>
				<path style="fill:#92E3A9;stroke:#263238;stroke-linecap:round;stroke-linejoin:round;stroke-miterlimit:10;" d="
					M154.273,241.751h-7.41c-1.891,0-3.423,1.533-3.423,3.423v1.896c0,3.937,3.191,8.937,7.128,8.937c3.937,0,7.128-5,7.128-8.937
					v-1.896C157.696,243.284,156.163,241.751,154.273,241.751z"/>
				<path style="fill:#92E3A9;stroke:#263238;stroke-linecap:round;stroke-linejoin:round;stroke-miterlimit:10;" d="
					M172.035,241.751h-7.41c-1.891,0-3.423,1.533-3.423,3.423v1.896c0,3.937,3.191,8.937,7.128,8.937c3.937,0,7.128-5,7.128-8.937
					v-1.896C175.458,243.284,173.926,241.751,172.035,241.751z"/>
				<path style="fill:#92E3A9;stroke:#263238;stroke-linecap:round;stroke-linejoin:round;stroke-miterlimit:10;" d="
					M189.798,241.751h-7.41c-1.89,0-3.423,1.533-3.423,3.423v1.896c0,3.937,3.191,8.937,7.128,8.937c3.937,0,7.128-5,7.128-8.937
					v-1.896C193.221,243.284,191.688,241.751,189.798,241.751z"/>
				<path style="fill:#92E3A9;stroke:#263238;stroke-linecap:round;stroke-linejoin:round;stroke-miterlimit:10;" d="
					M207.56,241.751h-7.41c-1.89,0-3.423,1.533-3.423,3.423v1.896c0,3.937,3.191,8.937,7.128,8.937c3.937,0,7.128-5,7.128-8.937
					v-1.896C210.983,243.284,209.451,241.751,207.56,241.751z"/>
				<path style="fill:#92E3A9;stroke:#263238;stroke-linecap:round;stroke-linejoin:round;stroke-miterlimit:10;" d="
					M225.323,241.751h-7.41c-1.891,0-3.423,1.533-3.423,3.423v1.896c0,3.937,3.191,8.937,7.128,8.937c3.937,0,7.128-5,7.128-8.937
					v-1.896C228.746,243.284,227.213,241.751,225.323,241.751z"/>
				<path style="fill:#92E3A9;stroke:#263238;stroke-linecap:round;stroke-linejoin:round;stroke-miterlimit:10;" d="
					M243.085,241.751h-7.41c-1.891,0-3.423,1.533-3.423,3.423v1.896c0,3.937,3.191,8.937,7.128,8.937c3.937,0,7.128-5,7.128-8.937
					v-1.896C246.508,243.284,244.976,241.751,243.085,241.751z"/>
				<path style="fill:#92E3A9;stroke:#263238;stroke-linecap:round;stroke-linejoin:round;stroke-miterlimit:10;" d="
					M260.848,241.751h-7.409c-1.891,0-3.423,1.533-3.423,3.423v1.896c0,3.937,3.191,8.937,7.128,8.937c3.937,0,7.128-5,7.128-8.937
					v-1.896C264.271,243.284,262.738,241.751,260.848,241.751z"/>
				<path style="fill:#92E3A9;stroke:#263238;stroke-linecap:round;stroke-linejoin:round;stroke-miterlimit:10;" d="
					M278.61,241.751h-7.409c-1.891,0-3.423,1.533-3.423,3.423v1.896c0,3.937,3.191,8.937,7.128,8.937c3.937,0,7.128-5,7.128-8.937
					v-1.896C282.033,243.284,280.501,241.751,278.61,241.751z"/>
				<path style="fill:#92E3A9;stroke:#263238;stroke-linecap:round;stroke-linejoin:round;stroke-miterlimit:10;" d="
					M296.373,241.751h-7.41c-1.891,0-3.423,1.533-3.423,3.423v1.896c0,3.937,3.191,8.937,7.128,8.937c3.937,0,7.128-5,7.128-8.937
					v-1.896C299.796,243.284,298.263,241.751,296.373,241.751z"/>
				<path style="fill:#92E3A9;stroke:#263238;stroke-linecap:round;stroke-linejoin:round;stroke-miterlimit:10;" d="
					M314.135,241.751h-7.409c-1.891,0-3.423,1.533-3.423,3.423v1.896c0,3.937,3.191,8.937,7.128,8.937c3.937,0,7.128-5,7.128-8.937
					v-1.896C317.559,243.284,316.026,241.751,314.135,241.751z"/>
				<path style="fill:#92E3A9;stroke:#263238;stroke-linecap:round;stroke-linejoin:round;stroke-miterlimit:10;" d="
					M331.898,241.751h-7.41c-1.891,0-3.423,1.533-3.423,3.423v1.896c0,3.937,3.191,8.937,7.128,8.937c3.937,0,7.128-5,7.128-8.937
					v-1.896C335.321,243.284,333.788,241.751,331.898,241.751z"/>
				<path style="fill:#92E3A9;stroke:#263238;stroke-linecap:round;stroke-linejoin:round;stroke-miterlimit:10;" d="
					M349.66,241.751h-7.41c-1.891,0-3.423,1.533-3.423,3.423v1.896c0,3.937,3.191,8.937,7.128,8.937s7.128-5,7.128-8.937v-1.896
					C353.083,243.284,351.551,241.751,349.66,241.751z"/>
				<path style="fill:#92E3A9;stroke:#263238;stroke-linecap:round;stroke-linejoin:round;stroke-miterlimit:10;" d="
					M154.273,279.39h-7.41c-1.891,0-3.423,1.533-3.423,3.423v1.896c0,3.937,3.191,8.937,7.128,8.937c3.937,0,7.128-5,7.128-8.937
					v-1.896C157.696,280.922,156.163,279.39,154.273,279.39z"/>
				<path style="fill:#92E3A9;stroke:#263238;stroke-linecap:round;stroke-linejoin:round;stroke-miterlimit:10;" d="
					M172.035,279.39h-7.41c-1.891,0-3.423,1.533-3.423,3.423v1.896c0,3.937,3.191,8.937,7.128,8.937c3.937,0,7.128-5,7.128-8.937
					v-1.896C175.458,280.922,173.926,279.39,172.035,279.39z"/>
				<path style="fill:#92E3A9;stroke:#263238;stroke-linecap:round;stroke-linejoin:round;stroke-miterlimit:10;" d="
					M189.798,279.39h-7.41c-1.89,0-3.423,1.533-3.423,3.423v1.896c0,3.937,3.191,8.937,7.128,8.937c3.937,0,7.128-5,7.128-8.937
					v-1.896C193.221,280.922,191.688,279.39,189.798,279.39z"/>
				<path style="fill:#92E3A9;stroke:#263238;stroke-linecap:round;stroke-linejoin:round;stroke-miterlimit:10;" d="M207.56,279.39
					h-7.41c-1.89,0-3.423,1.533-3.423,3.423v1.896c0,3.937,3.191,8.937,7.128,8.937c3.937,0,7.128-5,7.128-8.937v-1.896
					C210.983,280.922,209.451,279.39,207.56,279.39z"/>
				<path style="fill:#92E3A9;stroke:#263238;stroke-linecap:round;stroke-linejoin:round;stroke-miterlimit:10;" d="
					M225.323,279.39h-7.41c-1.891,0-3.423,1.533-3.423,3.423v1.896c0,3.937,3.191,8.937,7.128,8.937c3.937,0,7.128-5,7.128-8.937
					v-1.896C228.746,280.922,227.213,279.39,225.323,279.39z"/>
				<path style="fill:#92E3A9;stroke:#263238;stroke-linecap:round;stroke-linejoin:round;stroke-miterlimit:10;" d="
					M243.085,279.39h-7.41c-1.891,0-3.423,1.533-3.423,3.423v1.896c0,3.937,3.191,8.937,7.128,8.937c3.937,0,7.128-5,7.128-8.937
					v-1.896C246.508,280.922,244.976,279.39,243.085,279.39z"/>
				<path style="fill:#92E3A9;stroke:#263238;stroke-linecap:round;stroke-linejoin:round;stroke-miterlimit:10;" d="
					M260.848,279.39h-7.409c-1.891,0-3.423,1.533-3.423,3.423v1.896c0,3.937,3.191,8.937,7.128,8.937c3.937,0,7.128-5,7.128-8.937
					v-1.896C264.271,280.922,262.738,279.39,260.848,279.39z"/>
				<path style="fill:#92E3A9;stroke:#263238;stroke-linecap:round;stroke-linejoin:round;stroke-miterlimit:10;" d="M278.61,279.39
					h-7.409c-1.891,0-3.423,1.533-3.423,3.423v1.896c0,3.937,3.191,8.937,7.128,8.937c3.937,0,7.128-5,7.128-8.937v-1.896
					C282.033,280.922,280.501,279.39,278.61,279.39z"/>
				<path style="fill:#92E3A9;stroke:#263238;stroke-linecap:round;stroke-linejoin:round;stroke-miterlimit:10;" d="
					M296.373,279.39h-7.41c-1.891,0-3.423,1.533-3.423,3.423v1.896c0,3.937,3.191,8.937,7.128,8.937c3.937,0,7.128-5,7.128-8.937
					v-1.896C299.796,280.922,298.263,279.39,296.373,279.39z"/>
				<path style="fill:#92E3A9;stroke:#263238;stroke-linecap:round;stroke-linejoin:round;stroke-miterlimit:10;" d="
					M314.135,279.39h-7.409c-1.891,0-3.423,1.533-3.423,3.423v1.896c0,3.937,3.191,8.937,7.128,8.937c3.937,0,7.128-5,7.128-8.937
					v-1.896C317.559,280.922,316.026,279.39,314.135,279.39z"/>
				<path style="fill:#92E3A9;stroke:#263238;stroke-linecap:round;stroke-linejoin:round;stroke-miterlimit:10;" d="
					M331.898,279.39h-7.41c-1.891,0-3.423,1.533-3.423,3.423v1.896c0,3.937,3.191,8.937,7.128,8.937c3.937,0,7.128-5,7.128-8.937
					v-1.896C335.321,280.922,333.788,279.39,331.898,279.39z"/>
				<path style="fill:#92E3A9;stroke:#263238;stroke-linecap:round;stroke-linejoin:round;stroke-miterlimit:10;" d="M349.66,279.39
					h-7.41c-1.891,0-3.423,1.533-3.423,3.423v1.896c0,3.937,3.191,8.937,7.128,8.937s7.128-5,7.128-8.937v-1.896
					C353.083,280.922,351.551,279.39,349.66,279.39z"/>
				<path style="fill:#92E3A9;stroke:#263238;stroke-linecap:round;stroke-linejoin:round;stroke-miterlimit:10;" d="
					M145.392,261.179h-7.41c-1.891,0-3.423,1.533-3.423,3.423v1.896c0,3.936,3.191,8.937,7.128,8.937s7.128-5,7.128-8.937v-1.896
					C148.815,262.712,147.282,261.179,145.392,261.179z"/>
				<path style="fill:#92E3A9;stroke:#263238;stroke-linecap:round;stroke-linejoin:round;stroke-miterlimit:10;" d="
					M163.154,261.179h-7.41c-1.89,0-3.423,1.533-3.423,3.423v1.896c0,3.936,3.191,8.937,7.128,8.937s7.128-5,7.128-8.937v-1.896
					C166.577,262.712,165.045,261.179,163.154,261.179z"/>
				<path style="fill:#92E3A9;stroke:#263238;stroke-linecap:round;stroke-linejoin:round;stroke-miterlimit:10;" d="
					M180.917,261.179h-7.41c-1.89,0-3.423,1.533-3.423,3.423v1.896c0,3.936,3.191,8.937,7.128,8.937s7.128-5,7.128-8.937v-1.896
					C184.34,262.712,182.807,261.179,180.917,261.179z"/>
				<path style="fill:#92E3A9;stroke:#263238;stroke-linecap:round;stroke-linejoin:round;stroke-miterlimit:10;" d="
					M198.679,261.179h-7.41c-1.89,0-3.423,1.533-3.423,3.423v1.896c0,3.936,3.191,8.937,7.128,8.937s7.128-5,7.128-8.937v-1.896
					C202.102,262.712,200.57,261.179,198.679,261.179z"/>
				<path style="fill:#92E3A9;stroke:#263238;stroke-linecap:round;stroke-linejoin:round;stroke-miterlimit:10;" d="
					M216.442,261.179h-7.41c-1.89,0-3.423,1.533-3.423,3.423v1.896c0,3.936,3.191,8.937,7.128,8.937s7.128-5,7.128-8.937v-1.896
					C219.865,262.712,218.332,261.179,216.442,261.179z"/>
				<path style="fill:#92E3A9;stroke:#263238;stroke-linecap:round;stroke-linejoin:round;stroke-miterlimit:10;" d="
					M234.204,261.179h-7.41c-1.89,0-3.423,1.533-3.423,3.423v1.896c0,3.936,3.191,8.937,7.128,8.937s7.128-5,7.128-8.937v-1.896
					C237.627,262.712,236.095,261.179,234.204,261.179z"/>
				<path style="fill:#92E3A9;stroke:#263238;stroke-linecap:round;stroke-linejoin:round;stroke-miterlimit:10;" d="
					M251.967,261.179h-7.41c-1.89,0-3.423,1.533-3.423,3.423v1.896c0,3.936,3.191,8.937,7.128,8.937s7.128-5,7.128-8.937v-1.896
					C255.39,262.712,253.857,261.179,251.967,261.179z"/>
				<path style="fill:#92E3A9;stroke:#263238;stroke-linecap:round;stroke-linejoin:round;stroke-miterlimit:10;" d="
					M269.729,261.179h-7.41c-1.89,0-3.423,1.533-3.423,3.423v1.896c0,3.936,3.191,8.937,7.128,8.937c3.937,0,7.128-5,7.128-8.937
					v-1.896C273.152,262.712,271.62,261.179,269.729,261.179z"/>
				<path style="fill:#92E3A9;stroke:#263238;stroke-linecap:round;stroke-linejoin:round;stroke-miterlimit:10;" d="
					M287.492,261.179h-7.41c-1.891,0-3.423,1.533-3.423,3.423v1.896c0,3.936,3.191,8.937,7.128,8.937c3.937,0,7.128-5,7.128-8.937
					v-1.896C290.915,262.712,289.382,261.179,287.492,261.179z"/>
				<path style="fill:#92E3A9;stroke:#263238;stroke-linecap:round;stroke-linejoin:round;stroke-miterlimit:10;" d="
					M305.254,261.179h-7.409c-1.891,0-3.423,1.533-3.423,3.423v1.896c0,3.936,3.191,8.937,7.128,8.937c3.937,0,7.128-5,7.128-8.937
					v-1.896C308.677,262.712,307.145,261.179,305.254,261.179z"/>
				<path style="fill:#92E3A9;stroke:#263238;stroke-linecap:round;stroke-linejoin:round;stroke-miterlimit:10;" d="
					M323.017,261.179h-7.41c-1.891,0-3.423,1.533-3.423,3.423v1.896c0,3.936,3.191,8.937,7.128,8.937c3.937,0,7.128-5,7.128-8.937
					v-1.896C326.44,262.712,324.907,261.179,323.017,261.179z"/>
				<path style="fill:#92E3A9;stroke:#263238;stroke-linecap:round;stroke-linejoin:round;stroke-miterlimit:10;" d="
					M340.779,261.179h-7.409c-1.891,0-3.423,1.533-3.423,3.423v1.896c0,3.936,3.191,8.937,7.128,8.937c3.937,0,7.128-5,7.128-8.937
					v-1.896C344.202,262.712,342.67,261.179,340.779,261.179z"/>
				<path style="fill:#92E3A9;stroke:#263238;stroke-linecap:round;stroke-linejoin:round;stroke-miterlimit:10;" d="
					M358.542,261.179h-7.41c-1.891,0-3.423,1.533-3.423,3.423v1.896c0,3.936,3.191,8.937,7.128,8.937c3.937,0,7.128-5,7.128-8.937
					v-1.896C361.965,262.712,360.432,261.179,358.542,261.179z"/>
				<path style="fill:#92E3A9;stroke:#263238;stroke-linecap:round;stroke-linejoin:round;stroke-miterlimit:10;" d="M316.1,314.509
					H180.423c-1.774,0-3.212-1.438-3.212-3.211v-9.738c0-1.774,1.438-3.211,3.212-3.211H316.1c1.774,0,3.211,1.438,3.211,3.211
					v9.738C319.312,313.071,317.874,314.509,316.1,314.509z"/>
				<path style="fill:#92E3A9;stroke:#263238;stroke-linecap:round;stroke-linejoin:round;stroke-miterlimit:10;" d="
					M334.271,299.301h-7.409c-1.891,0-3.423,1.533-3.423,3.423v1.896c0,3.937,3.191,8.937,7.128,8.937c3.937,0,7.128-5,7.128-8.937
					v-1.896C337.694,300.833,336.161,299.301,334.271,299.301z"/>
				<path style="fill:#92E3A9;stroke:#263238;stroke-linecap:round;stroke-linejoin:round;stroke-miterlimit:10;" d="
					M169.662,299.301h-7.41c-1.89,0-3.423,1.533-3.423,3.423v1.896c0,3.937,3.191,8.937,7.128,8.937s7.128-5,7.128-8.937v-1.896
					C173.085,300.833,171.553,299.301,169.662,299.301z"/>
			</g>
			<g>
				<path style="opacity:0.2;" d="M154.679,247.178c0.378,0,0.731,0.037,1.066,0.099c0.003-0.069,0.01-0.139,0.01-0.207v-1.895
					c0-0.817-0.665-1.483-1.483-1.483h-7.41c-0.817,0-1.483,0.666-1.483,1.483v1.895c0,2.734,2.016,6.17,4.355,6.863
					C148.988,250.9,150.638,247.178,154.679,247.178z"/>
				<path style="opacity:0.2;" d="M172.842,246.667c0.234,0,0.458,0.015,0.676,0.039v-1.531c0-0.817-0.665-1.483-1.483-1.483h-7.409
					c-0.818,0-1.483,0.666-1.483,1.483v1.895c0,2.964,2.369,6.753,4.951,6.976C166.934,250.927,168.517,246.667,172.842,246.667z"/>
				<path style="opacity:0.2;" d="M191.133,246.411c0.051,0,0.098,0.006,0.148,0.007v-1.244c0-0.817-0.665-1.483-1.483-1.483h-7.41
					c-0.818,0-1.483,0.666-1.483,1.483v1.895c0,3.055,2.516,6.997,5.188,6.997c0.129,0,0.258-0.017,0.387-0.035
					C185.143,250.897,186.695,246.411,191.133,246.411z"/>
				<path style="opacity:0.2;" d="M207.76,245.899c0.46,0,0.885,0.051,1.283,0.141v-0.866c0-0.817-0.665-1.483-1.483-1.483h-7.41
					c-0.817,0-1.483,0.666-1.483,1.483v1.895c0,2.861,2.206,6.499,4.681,6.95C201.608,250.887,203.081,245.899,207.76,245.899z"/>
				<path style="opacity:0.2;" d="M226.435,245.899c0.128,0,0.248,0.011,0.371,0.018v-0.743c0-0.817-0.665-1.483-1.483-1.483h-7.41
					c-0.818,0-1.483,0.666-1.483,1.483v1.895c0,3.055,2.516,6.997,5.188,6.997c0.137,0,0.274-0.017,0.41-0.037
					C220.279,250.898,221.751,245.899,226.435,245.899z"/>
				<path style="opacity:0.2;" d="M244.342,246.027c0.078,0,0.151,0.008,0.227,0.011v-0.864c0-0.817-0.665-1.483-1.483-1.483h-7.41
					c-0.817,0-1.483,0.666-1.483,1.483v1.895c0,3.055,2.516,6.997,5.188,6.997c0.163,0,0.325-0.016,0.487-0.044
					C238.231,250.885,239.723,246.027,244.342,246.027z"/>
				<path style="opacity:0.2;" d="M261.481,245.899c0.298,0,0.578,0.027,0.85,0.066v-0.79c0-0.817-0.666-1.483-1.483-1.483h-7.409
					c-0.817,0-1.483,0.666-1.483,1.483v1.895c0,3.036,2.485,6.944,5.138,6.993C255.315,250.933,256.781,245.899,261.481,245.899z"/>
				<path style="opacity:0.2;" d="M280.093,246.164v-0.99c0-0.817-0.666-1.483-1.483-1.483h-7.409c-0.818,0-1.483,0.666-1.483,1.483
					v1.895c0,3.055,2.516,6.997,5.188,6.997c0.269,0,0.536-0.05,0.799-0.125C274.26,250.847,275.727,246.296,280.093,246.164z"/>
				<path style="opacity:0.2;" d="M296.4,245.771c0.528,0,1.01,0.07,1.456,0.187v-0.784c0-0.817-0.665-1.483-1.482-1.483h-7.41
					c-0.818,0-1.483,0.666-1.483,1.483v1.895c0,2.816,2.139,6.379,4.567,6.92C290.218,250.864,291.671,245.771,296.4,245.771z"/>
				<path style="opacity:0.2;" d="M314.562,245.771c0.374,0,0.724,0.037,1.057,0.097v-0.694c0-0.817-0.666-1.483-1.483-1.483h-7.41
					c-0.817,0-1.482,0.666-1.482,1.483v1.895c0,2.985,2.402,6.807,5.004,6.981C308.363,250.931,309.802,245.771,314.562,245.771z"/>
				<path style="opacity:0.2;" d="M332.597,246.283c0.274,0,0.532,0.023,0.784,0.055v-1.164c0-0.817-0.666-1.483-1.483-1.483h-7.41
					c-0.817,0-1.482,0.666-1.482,1.483v1.895c0,2.984,2.401,6.804,5.003,6.98C326.559,250.91,328.09,246.283,332.597,246.283z"/>
				<path style="opacity:0.2;" d="M351.144,246.052v-0.878c0-0.817-0.666-1.483-1.483-1.483h-7.409
					c-0.817,0-1.483,0.666-1.483,1.483v1.895c0,3.055,2.516,6.997,5.188,6.997c0.382,0,0.76-0.088,1.129-0.236
					C345.663,250.813,347.019,246.392,351.144,246.052z"/>
				<path style="opacity:0.2;" d="M155.191,282.992c0.194,0,0.382,0.011,0.565,0.028v-0.207c0-0.817-0.665-1.483-1.483-1.483h-7.41
					c-0.817,0-1.483,0.666-1.483,1.483v1.895c0,3.055,2.516,6.997,5.188,6.997c0.187,0,0.372-0.023,0.557-0.06
					C148.878,288.585,150.235,282.992,155.191,282.992z"/>
				<path style="opacity:0.2;" d="M172.586,282.992c0.328,0,0.636,0.031,0.932,0.078v-0.257c0-0.817-0.665-1.483-1.483-1.483h-7.409
					c-0.818,0-1.483,0.666-1.483,1.483v1.895c0,3.055,2.516,6.997,5.188,6.997c0.074,0,0.147-0.014,0.221-0.02
					C166.262,288.635,167.608,282.992,172.586,282.992z"/>
				<path style="opacity:0.2;" d="M190.237,283.248c0.369,0,0.714,0.036,1.044,0.095v-0.53c0-0.817-0.665-1.483-1.483-1.483h-7.41
					c-0.818,0-1.483,0.666-1.483,1.483v1.895c0,3.031,2.477,6.931,5.126,6.992C183.985,288.603,185.388,283.248,190.237,283.248z"/>
				<path style="opacity:0.2;" d="M208.272,283.376c0.269,0,0.524,0.022,0.771,0.053v-0.616c0-0.817-0.665-1.483-1.483-1.483h-7.41
					c-0.817,0-1.483,0.666-1.483,1.483v1.895c0,3.055,2.516,6.997,5.188,6.997c0.042,0,0.084-0.01,0.126-0.011
					C202.061,288.579,203.492,283.376,208.272,283.376z"/>
				<path style="opacity:0.2;" d="M225.667,282.992c0.404,0,0.782,0.04,1.139,0.11v-0.288c0-0.817-0.665-1.483-1.483-1.483h-7.41
					c-0.818,0-1.483,0.666-1.483,1.483v1.895c0,3.055,2.516,6.997,5.188,6.997c0.009,0,0.019-0.002,0.028-0.003
					C219.338,288.657,220.68,282.992,225.667,282.992z"/>
				<path style="opacity:0.2;" d="M243.702,283.12c0.304,0,0.59,0.028,0.867,0.068v-0.375c0-0.817-0.665-1.483-1.483-1.483h-7.41
					c-0.817,0-1.483,0.666-1.483,1.483v1.895c0,3.055,2.516,6.997,5.188,6.997c0.064,0,0.126-0.013,0.19-0.017
					C237.412,288.611,238.793,283.12,243.702,283.12z"/>
				<path style="opacity:0.2;" d="M262.121,283.504c0.072,0,0.139,0.008,0.21,0.01v-0.701c0-0.817-0.666-1.483-1.483-1.483h-7.409
					c-0.817,0-1.483,0.666-1.483,1.483v1.895c0,3.055,2.516,6.997,5.188,6.997c0.193,0,0.384-0.026,0.574-0.065
					C255.962,288.509,257.434,283.504,262.121,283.504z"/>
				<path style="opacity:0.2;" d="M280.028,283.12c0.023,0,0.043,0.003,0.066,0.003v-0.31c0-0.817-0.666-1.483-1.483-1.483h-7.409
					c-0.818,0-1.483,0.666-1.483,1.483v1.895c0,3.055,2.516,6.997,5.188,6.997c0.305,0,0.607-0.057,0.904-0.152
					C273.781,288.453,275.188,283.12,280.028,283.12z"/>
				<path style="opacity:0.2;" d="M297.295,282.736c0.191,0,0.375,0.011,0.556,0.027c-0.027-0.794-0.677-1.434-1.477-1.434h-7.41
					c-0.818,0-1.483,0.666-1.483,1.483v1.895c0,3.055,2.516,6.997,5.188,6.997c0.244,0,0.485-0.043,0.725-0.105
					C290.92,288.595,292.223,282.736,297.295,282.736z"/>
				<path style="opacity:0.2;" d="M315.585,282.992c0.012,0,0.022,0.002,0.034,0.002v-0.181c0-0.817-0.666-1.483-1.483-1.483h-7.41
					c-0.817,0-1.482,0.666-1.482,1.483v1.895c0,3.055,2.515,6.997,5.187,6.997c0.338,0,0.673-0.064,1-0.18
					C309.306,288.442,310.695,282.992,315.585,282.992z"/>
				<path style="opacity:0.2;" d="M332.981,282.992c0.138,0,0.268,0.011,0.4,0.02v-0.198c0-0.817-0.666-1.483-1.483-1.483h-7.41
					c-0.817,0-1.482,0.666-1.482,1.483v1.895c0,3.055,2.516,6.997,5.188,6.997c0.233,0,0.464-0.04,0.693-0.097
					C326.678,288.541,328.045,282.992,332.981,282.992z"/>
				<path style="opacity:0.2;" d="M350.504,283.759c0.221,0,0.433,0.012,0.64,0.033v-0.98c0-0.817-0.666-1.483-1.483-1.483h-7.409
					c-0.817,0-1.483,0.666-1.483,1.483v1.895c0,3.055,2.516,6.997,5.188,6.997c0.016,0,0.031-0.004,0.047-0.004
					C344.411,288.562,345.912,283.759,350.504,283.759z"/>
				<path style="opacity:0.2;" d="M146.749,265.085c0.043,0,0.083,0.005,0.126,0.006v-0.488c0-0.818-0.665-1.483-1.483-1.483h-7.41
					c-0.818,0-1.483,0.666-1.483,1.483v1.895c0,3.055,2.515,6.997,5.188,6.997c0.255,0,0.508-0.046,0.758-0.114
					C140.545,270.264,141.98,265.085,146.749,265.085z"/>
				<path style="opacity:0.2;" d="M164.144,265.085c0.17,0,0.332,0.011,0.493,0.024v-0.506c0-0.818-0.665-1.483-1.483-1.483h-7.41
					c-0.817,0-1.483,0.666-1.483,1.483v1.895c0,3.055,2.516,6.997,5.188,6.997c0.146,0,0.292-0.017,0.438-0.039
					C157.918,270.347,159.337,265.085,164.144,265.085z"/>
				<path style="opacity:0.2;" d="M182.307,265.085c0.032,0,0.061,0.004,0.092,0.005v-0.487c0-0.818-0.665-1.483-1.483-1.483h-7.41
					c-0.818,0-1.483,0.666-1.483,1.483v1.895c0,3.055,2.516,6.997,5.188,6.997c0.265,0,0.527-0.049,0.787-0.121
					C176.105,270.256,177.542,265.085,182.307,265.085z"/>
				<path style="opacity:0.2;" d="M199.702,264.957c0.158,0,0.309,0.011,0.46,0.022v-0.377c0-0.818-0.665-1.483-1.483-1.483h-7.41
					c-0.817,0-1.483,0.666-1.483,1.483v1.895c0,3.055,2.516,6.997,5.188,6.997c0.181,0,0.361-0.021,0.54-0.056
					C193.44,270.347,194.838,264.957,199.702,264.957z"/>
				<path style="opacity:0.2;" d="M216.97,265.085c0.337,0,0.652,0.033,0.955,0.082v-0.564c0-0.818-0.665-1.483-1.483-1.483h-7.409
					c-0.818,0-1.483,0.666-1.483,1.483v1.895c0,3.055,2.516,6.997,5.188,6.997h0C210.73,270.392,212.142,265.085,216.97,265.085z"/>
				<path style="opacity:0.2;" d="M234.877,264.446c0.28,0,0.544,0.024,0.8,0.058c-0.052-0.771-0.689-1.384-1.473-1.384h-7.41
					c-0.818,0-1.483,0.666-1.483,1.483v1.895c0,3.055,2.516,6.997,5.188,6.997c0.193,0,0.385-0.026,0.575-0.065
					C228.466,270.464,229.737,264.446,234.877,264.446z"/>
				<path style="opacity:0.2;" d="M252.783,265.213c0.23,0,0.452,0.014,0.666,0.037v-0.648c0-0.818-0.666-1.483-1.483-1.483h-7.41
					c-0.818,0-1.483,0.666-1.483,1.483v1.895c0,3.055,2.516,6.997,5.188,6.997c0.066,0,0.132-0.013,0.197-0.018
					C246.589,270.357,248.031,265.213,252.783,265.213z"/>
				<path style="opacity:0.2;" d="M271.212,264.598c-0.003-0.815-0.667-1.479-1.483-1.479h-7.409c-0.818,0-1.483,0.666-1.483,1.483
					v1.895c0,3.055,2.516,6.997,5.188,6.997c0.518,0,1.03-0.151,1.519-0.413C265.517,270.104,266.744,264.959,271.212,264.598z"/>
				<path style="opacity:0.2;" d="M288.975,264.976v-0.374c0-0.818-0.666-1.483-1.483-1.483h-7.409
					c-0.817,0-1.483,0.666-1.483,1.483v1.895c0,3.055,2.516,6.997,5.188,6.997c0.423,0,0.84-0.108,1.246-0.286
					C283.226,270.175,284.544,265.253,288.975,264.976z"/>
				<path style="opacity:0.2;" d="M306.12,264.702c0.212,0,0.418,0.01,0.616,0.03v-0.129c0-0.818-0.665-1.483-1.482-1.483h-7.41
					c-0.818,0-1.483,0.666-1.483,1.483v1.895c0,3.055,2.516,6.997,5.188,6.997c0.19,0,0.378-0.025,0.566-0.063
					C299.785,270.391,301.122,264.702,306.12,264.702z"/>
				<path style="opacity:0.2;" d="M324.5,265.349v-0.746c0-0.818-0.666-1.483-1.483-1.483h-7.41c-0.818,0-1.482,0.666-1.482,1.483
					v1.895c0,3.055,2.516,6.997,5.188,6.997c0.299,0,0.594-0.056,0.886-0.148C318.573,270.249,320.011,265.467,324.5,265.349z"/>
				<path style="opacity:0.2;" d="M341.423,264.829c0.294,0,0.571,0.026,0.84,0.064v-0.29c0-0.818-0.666-1.483-1.483-1.483h-7.409
					c-0.818,0-1.483,0.666-1.483,1.483v1.895c0,3.055,2.516,6.997,5.188,6.997c0.091,0,0.182-0.016,0.273-0.025
					C335.113,270.408,336.473,264.829,341.423,264.829z"/>
				<path style="opacity:0.2;" d="M359.329,265.597c0.241,0,0.471,0.016,0.695,0.042v-1.036c0-0.818-0.666-1.483-1.483-1.483h-7.409
					c-0.818,0-1.483,0.666-1.483,1.483v1.895c0,3.043,2.496,6.963,5.156,6.994C353.252,270.352,354.76,265.597,359.329,265.597z"/>
				<path style="opacity:0.2;" d="M179.152,311.358V301.5c0-0.669,0.542-1.211,1.211-1.211H316.16c0.669,0,1.212,0.543,1.212,1.212
					v9.857c0,0.669-0.543,1.212-1.212,1.212H180.363C179.694,312.569,179.152,312.027,179.152,311.358z"/>
				<path style="opacity:0.2;" d="M335.754,303.715v-0.991c0-0.818-0.666-1.483-1.483-1.483h-7.409
					c-0.818,0-1.483,0.666-1.483,1.483v1.895c0,3.055,2.516,6.997,5.188,6.997c0.223,0,0.444-0.037,0.664-0.089
					C329.747,308.397,331.256,303.744,335.754,303.715z"/>
				<path style="opacity:0.2;" d="M170.284,303.073c0.302,0,0.586,0.028,0.862,0.067v-0.417c0-0.818-0.665-1.483-1.483-1.483h-7.41
					c-0.818,0-1.483,0.666-1.483,1.483v1.895c0,3.055,2.516,6.997,5.188,6.997c0.056,0,0.111-0.012,0.167-0.015
					C164.007,308.516,165.396,303.073,170.284,303.073z"/>
			</g>
			<path style="opacity:0.2;" d="M377.171,156.855H119.353V100.85c0-3.508,2.844-6.351,6.351-6.351h245.115
				c3.508,0,6.351,2.844,6.351,6.351V156.855z"/>
			<g>
				<defs>
					<path id="XMLID_86_" d="M350.779,105.063H145.744c0,0-1.941-19.32-9.044-41.852h223.123
						C352.793,84.813,350.779,105.063,350.779,105.063z"/>
				</defs>
				<use xlink:href="#XMLID_86_"  style="overflow:visible;fill:#FFFFFF;"/>
				<clipPath id="XMLID_00000157283347035722944280000010615148032431748027_">
					<use xlink:href="#XMLID_86_"  style="overflow:visible;"/>
				</clipPath>
				<path style="opacity:0.2;clip-path:url(#XMLID_00000157283347035722944280000010615148032431748027_);" d="M352.798,91.572
					c-1.484,8.138-2.018,13.492-2.018,13.492H145.741c0,0-0.524-5.257-2.047-13.492H352.798z"/>
				
					<use xlink:href="#XMLID_86_"  style="overflow:visible;fill:none;stroke:#263238;stroke-linecap:round;stroke-linejoin:round;stroke-miterlimit:10;"/>
			</g>
			<rect x="146.875" y="140.302" style="fill:#263238;" width="201.112" height="82.739"/>
			<g style="opacity:0.4;">
				<path style="fill:#FFFFFF;" d="M242.423,215.717c0.352,0.021,0.705,0.035,1.058,0.052c1.314-20.632,2.629-41.289,3.944-61.984
					C245.757,174.481,244.088,195.122,242.423,215.717z"/>
				<path style="fill:#FFFFFF;" d="M239.043,215.458c0.352,0.033,0.708,0.058,1.061,0.087c2.301-20.494,4.61-41.075,6.921-61.765
					C244.359,174.472,241.695,195.027,239.043,215.458z"/>
				<path style="fill:#FFFFFF;" d="M235.667,215.08c0.353,0.046,0.711,0.081,1.066,0.123c3.281-20.278,6.585-40.749,9.893-61.428
					C242.959,174.459,239.298,194.888,235.667,215.08z"/>
				<path style="fill:#FFFFFF;" d="M232.3,214.574c0.354,0.06,0.713,0.111,1.07,0.167c4.248-19.989,8.548-40.304,12.856-60.973
					C241.555,174.441,236.895,194.699,232.3,214.574z"/>
				<path style="fill:#FFFFFF;" d="M228.944,213.939c0.357,0.074,0.714,0.146,1.073,0.216c5.199-19.618,10.497-39.746,15.808-60.398
					C240.148,174.411,234.486,194.467,228.944,213.939z"/>
				<path style="fill:#FFFFFF;" d="M225.602,213.177c0.359,0.089,0.714,0.183,1.076,0.268c6.131-19.171,12.428-39.064,18.748-59.7
					C238.735,174.38,232.07,194.184,225.602,213.177z"/>
				<path style="fill:#FFFFFF;" d="M222.275,212.284c0.361,0.104,0.718,0.214,1.082,0.314c7.038-18.64,14.336-38.253,21.67-58.866
					C237.316,174.344,229.645,193.852,222.275,212.284z"/>
				<path style="fill:#FFFFFF;" d="M218.968,211.255c0.362,0.121,0.725,0.241,1.09,0.357c7.916-18.025,16.216-37.312,24.568-57.896
					C235.89,174.302,227.21,193.47,218.968,211.255z"/>
				<path style="fill:#FFFFFF;" d="M215.684,210.088c0.363,0.138,0.733,0.269,1.1,0.403c8.76-17.324,18.065-36.241,27.443-56.793
					C234.455,174.255,224.763,193.037,215.684,210.088z"/>
				<path style="fill:#FFFFFF;" d="M212.437,208.771c0.363,0.157,0.733,0.306,1.101,0.459c9.566-16.536,19.878-35.035,30.289-55.55
					C233.018,174.189,222.308,192.55,212.437,208.771z"/>
				<path style="fill:#FFFFFF;" d="M209.231,207.29c0.366,0.179,0.729,0.36,1.1,0.534c10.324-15.651,21.65-33.703,33.097-54.167
					C231.573,174.118,219.848,191.991,209.231,207.29z"/>
				<path style="fill:#FFFFFF;" d="M206.068,205.653c0.366,0.201,0.731,0.401,1.103,0.597
					c11.032-14.674,23.367-32.208,35.858-52.616C230.119,174.039,217.378,191.373,206.068,205.653z"/>
				<path style="fill:#FFFFFF;" d="M202.956,203.855c0.364,0.224,0.74,0.438,1.11,0.657c11.682-13.6,25.023-30.562,38.563-50.903
					C228.658,173.95,214.9,190.691,202.956,203.855z"/>
				<path style="fill:#FFFFFF;" d="M199.931,201.863c0.361,0.251,0.722,0.501,1.091,0.746
					c12.268-12.428,26.614-28.763,41.208-49.028C227.2,173.835,212.435,189.921,199.931,201.863z"/>
				<path style="fill:#FFFFFF;" d="M241.831,153.552c-16.09,20.152-31.855,35.523-44.845,46.143
					c0.355,0.278,0.714,0.554,1.078,0.827C210.844,189.368,226.184,173.72,241.831,153.552z"/>
				<path style="fill:#FFFFFF;" d="M241.432,153.521c-17.141,20.023-33.89,34.617-47.279,43.816c0.347,0.308,0.702,0.61,1.059,0.911
					C208.42,188.466,224.74,173.567,241.432,153.521z"/>
				<path style="fill:#FFFFFF;" d="M241.033,153.488c-18.17,19.857-35.872,33.609-49.568,41.295c0.334,0.338,0.665,0.678,1.01,1.01
					C206.027,187.477,223.308,173.387,241.033,153.488z"/>
				<path style="fill:#FFFFFF;" d="M240.635,153.452c-19.168,19.649-37.784,32.499-51.692,38.593
					c0.316,0.369,0.643,0.732,0.971,1.095C203.712,186.372,221.911,173.155,240.635,153.452z"/>
				<path style="fill:#FFFFFF;" d="M186.644,189.135c0.291,0.398,0.582,0.796,0.887,1.187c13.951-5.156,33.023-17.445,52.706-36.906
					C220.132,172.792,200.666,184.683,186.644,189.135z"/>
				<path style="fill:#FFFFFF;" d="M184.599,186.091c0.26,0.423,0.53,0.842,0.805,1.258c14.01-3.519,33.873-14.832,54.434-33.973
					C218.878,172.406,198.647,183.296,184.599,186.091z"/>
				<path style="fill:#FFFFFF;" d="M182.86,182.979c0.221,0.439,0.448,0.875,0.685,1.308c13.991-1.896,34.555-12.211,55.895-30.952
					C217.747,171.921,196.86,181.799,182.86,182.979z"/>
				<path style="fill:#FFFFFF;" d="M181.441,179.84c0.179,0.445,0.367,0.886,0.563,1.325c13.912-0.336,35.041-9.623,57.038-27.873
					C216.746,171.345,195.342,180.191,181.441,179.84z"/>
				<path style="fill:#FFFFFF;" d="M245.805,215.858c0.351,0.009,0.704,0.012,1.057,0.017c0.321-20.694,0.642-41.39,0.963-62.088
					C247.152,174.486,246.478,195.175,245.805,215.858z"/>
				<path style="fill:#FFFFFF;" d="M249.188,215.883c0.353-0.003,0.705-0.01,1.057-0.017c-0.673-20.685-1.347-41.377-2.02-62.079
					C248.546,174.487,248.867,195.186,249.188,215.883z"/>
				<path style="fill:#FFFFFF;" d="M252.571,215.792c0.354-0.016,0.707-0.033,1.059-0.052c-1.666-20.602-3.335-41.251-5.004-61.955
					C249.941,174.488,251.257,195.152,252.571,215.792z"/>
				<path style="fill:#FFFFFF;" d="M255.951,215.584c0.354-0.028,0.709-0.055,1.062-0.087c-2.654-20.443-5.32-41.012-7.988-61.716
					C251.337,174.483,253.648,195.077,255.951,215.584z"/>
				<path style="fill:#FFFFFF;" d="M259.326,215.257c0.356-0.041,0.713-0.079,1.066-0.123c-3.633-20.21-7.298-40.656-10.968-61.359
					C252.736,174.472,256.043,194.961,259.326,215.257z"/>
				<path style="fill:#FFFFFF;" d="M262.695,214.809c0.357-0.054,0.717-0.102,1.072-0.16c-4.601-19.898-9.267-40.182-13.943-60.882
					C254.138,174.46,258.443,194.798,262.695,214.809z"/>
				<path style="fill:#FFFFFF;" d="M266.055,214.238c0.359-0.068,0.722-0.13,1.079-0.202c-5.551-19.503-11.222-39.591-16.909-60.279
					C255.544,174.438,260.849,194.594,266.055,214.238z"/>
				<path style="fill:#FFFFFF;" d="M269.404,213.542c0.362-0.083,0.723-0.167,1.083-0.254c-6.48-19.027-13.158-38.867-19.862-59.542
					C256.955,174.415,263.263,194.341,269.404,213.542z"/>
				<path style="fill:#FFFFFF;" d="M272.739,212.717c0.365-0.099,0.724-0.207,1.086-0.31c-7.385-18.468-15.073-38.017-22.8-58.675
					C258.373,174.388,265.687,194.041,272.739,212.717z"/>
				<path style="fill:#FFFFFF;" d="M276.052,211.748c0.367-0.115,0.729-0.238,1.093-0.358c-8.26-17.823-16.962-37.036-25.721-57.674
					C259.797,174.352,268.118,193.685,276.052,211.748z"/>
				<path style="fill:#FFFFFF;" d="M279.341,210.638c0.369-0.133,0.737-0.267,1.103-0.404c-9.101-17.09-18.821-35.921-28.62-56.535
					C261.228,174.308,270.559,193.274,279.341,210.638z"/>
				<path style="fill:#FFFFFF;" d="M282.603,209.385c0.37-0.151,0.744-0.296,1.11-0.452c-9.898-16.261-20.644-34.675-31.489-55.255
					C262.667,174.259,273.011,192.81,282.603,209.385z"/>
				<path style="fill:#FFFFFF;" d="M285.828,207.988c0.373-0.172,0.744-0.347,1.112-0.524
					c-10.649-15.337-22.418-33.268-34.318-53.807C264.109,174.193,275.475,192.299,285.828,207.988z"/>
				<path style="fill:#FFFFFF;" d="M289.017,206.432c0.375-0.195,0.738-0.4,1.107-0.6c-11.345-14.314-24.139-31.708-37.102-52.198
					C265.565,174.127,277.95,191.721,289.017,206.432z"/>
				<path style="fill:#FFFFFF;" d="M292.144,204.697c0.374-0.219,0.748-0.436,1.116-0.66
					c-11.982-13.191-25.802-29.993-39.838-50.428C267.023,174.043,280.424,191.066,292.144,204.697z"/>
				<path style="fill:#FFFFFF;" d="M253.82,153.581c14.668,20.367,29.085,36.764,41.393,49.214c0.372-0.245,0.742-0.491,1.107-0.741
					C283.774,190.093,268.931,173.944,253.82,153.581z"/>
				<path style="fill:#FFFFFF;" d="M254.219,153.552c15.738,20.285,31.165,35.996,43.988,47.163
					c0.369-0.273,0.725-0.554,1.085-0.833C286.26,189.256,270.404,173.822,254.219,153.552z"/>
				<path style="fill:#FFFFFF;" d="M254.618,153.521c16.798,20.174,33.22,35.134,46.472,44.912c0.361-0.302,0.726-0.602,1.077-0.911
					C288.734,188.335,271.875,173.679,254.618,153.521z"/>
				<path style="fill:#FFFFFF;" d="M255.017,153.488c17.854,20.043,35.255,34.191,48.85,42.482c0.35-0.334,0.683-0.678,1.021-1.018
					C291.151,187.301,273.321,173.491,255.017,153.488z"/>
				<path style="fill:#FFFFFF;" d="M255.416,153.452c18.873,19.86,37.213,33.128,51.049,39.846c0.334-0.366,0.67-0.73,0.991-1.102
					C293.511,186.167,274.743,173.265,255.416,153.452z"/>
				<path style="fill:#FFFFFF;" d="M308.893,190.456c0.311-0.395,0.602-0.799,0.897-1.201c-14.05-4.354-33.687-16.286-53.976-35.839
					C275.674,173.052,294.91,185.383,308.893,190.456z"/>
				<path style="fill:#FFFFFF;" d="M311.055,187.445c0.281-0.422,0.558-0.846,0.822-1.275c-14.063-2.655-34.491-13.57-55.665-32.794
					C276.977,172.707,297.024,184.048,311.055,187.445z"/>
				<path style="fill:#FFFFFF;" d="M312.951,184.341c0.242-0.439,0.471-0.883,0.696-1.328c-14-1.001-35.106-10.889-57.036-29.678
					C278.18,172.277,298.952,182.608,312.951,184.341z"/>
				<path style="fill:#FFFFFF;" d="M257.008,153.292c22.242,18.453,43.601,27.749,57.505,27.888c0.199-0.448,0.391-0.897,0.573-1.35
					C301.201,180.396,279.559,171.552,257.008,153.292z"/>
			</g>
			<path style="opacity:0.2;" d="M218.968,155.269c-3.789,9.721,0.314,38.03,27.658,38.03c27.343,0,37.289-19.867,36.177-32.146
				l36.51-5.884c0,0,11.192,30.923-12.575,52.555c-23.767,21.631-106.117,20.225-123.523,3.789
				c-17.406-16.436-7.755-48.925-7.755-48.925L218.968,155.269z"/>
		</g>
		<g>
			<path style="fill:#999999;stroke:#263238;stroke-linecap:round;stroke-linejoin:round;stroke-miterlimit:10;" d="
				M379.237,113.327v-6.819c0-0.52,0.339-0.979,0.836-1.131l5.042-1.552v-6.849c0-1.696,1.375-3.071,3.071-3.071h5.993
				c0.626,0,1.133,0.507,1.133,1.133v2.206c0,0.626-0.507,1.133-1.133,1.133h-7.633v6.676c0,0.413-0.216,0.797-0.569,1.012
				l-4.257,2.587v4.752L379.237,113.327z"/>
			<g>
				<rect x="379.237" y="113.327" style="fill:#263238;" width="6.579" height="19.679"/>
				<g>
					<defs>
						<rect id="XMLID_93_" x="385.816" y="111.656" width="8.229" height="23.02"/>
					</defs>
					<use xlink:href="#XMLID_93_"  style="overflow:visible;fill:#757575;"/>
					<clipPath id="XMLID_00000059290119317913415000000013203726299339510154_">
						<use xlink:href="#XMLID_93_"  style="overflow:visible;"/>
					</clipPath>
					
						<rect x="385.816" y="125.677" style="opacity:0.2;clip-path:url(#XMLID_00000059290119317913415000000013203726299339510154_);" width="8.208" height="9"/>
					
						<use xlink:href="#XMLID_93_"  style="overflow:visible;fill:none;stroke:#263238;stroke-linecap:round;stroke-linejoin:round;stroke-miterlimit:10;"/>
				</g>
				
					<rect x="110.707" y="113.327" transform="matrix(-1 -1.224647e-16 1.224647e-16 -1 227.9939 246.3326)" style="fill:#263238;" width="6.579" height="19.679"/>
				<g>
					<defs>
						
							<rect id="XMLID_95_" x="102.478" y="111.656" transform="matrix(-1 -1.224647e-16 1.224647e-16 -1 213.1849 246.3326)" width="8.229" height="23.02"/>
					</defs>
					<use xlink:href="#XMLID_95_"  style="overflow:visible;fill:#757575;"/>
					<clipPath id="XMLID_00000117658388405033622490000016523248588410302625_">
						<use xlink:href="#XMLID_95_"  style="overflow:visible;"/>
					</clipPath>
					
						<rect x="102.478" y="125.677" style="opacity:0.2;clip-path:url(#XMLID_00000117658388405033622490000016523248588410302625_);" width="8.229" height="8.776"/>
					
						<use xlink:href="#XMLID_95_"  style="overflow:visible;fill:none;stroke:#263238;stroke-linecap:round;stroke-linejoin:round;stroke-miterlimit:10;"/>
				</g>
			</g>
			<path style="fill:#92E3A9;stroke:#263238;stroke-linecap:round;stroke-linejoin:round;stroke-miterlimit:10;" d="M116.29,124.337
				L116.29,124.337c1.206-3.189,0.259-6.792-2.358-8.976l-4.84-4.04c-1.302-1.097-3.262-0.857-4.261,0.522l-19.195,26.485
				c-0.362,0.499-0.557,1.1-0.557,1.717v28.428c0,1.588,1.287,2.875,2.875,2.875l0,0c1.588,0,2.875-1.287,2.875-2.875v-23.094
				c0-0.568,0.179-1.123,0.51-1.584l14.356-19.976c0.531-0.739,1.58-0.868,2.274-0.279l2.643,2.243
				c0.654,0.555,1.484,0.86,2.341,0.86l0,0C114.437,126.643,115.765,125.725,116.29,124.337z"/>
			
				<circle style="fill:#999999;stroke:#263238;stroke-linecap:round;stroke-linejoin:round;stroke-miterlimit:10;" cx="112.331" cy="120.382" r="1.372"/>
			<rect x="123.389" y="103.825" style="fill:#263238;" width="249.745" height="38.683"/>
			<path style="opacity:0.2;fill:#FFFFFF;" d="M369.52,115.746H126.901c-0.765,0-1.385-0.62-1.385-1.385v-6.248
				c0-0.765,0.62-1.385,1.385-1.385H369.52c0.765,0,1.385,0.62,1.385,1.385v6.248C370.905,115.127,370.285,115.746,369.52,115.746z"
				/>
			<g>
				<defs>
					<path id="XMLID_91_" d="M350.779,150.285H145.744c0,0-9.044-18.832-9.044-41.852h223.123
						C359.824,127.808,350.779,150.285,350.779,150.285z"/>
				</defs>
				<use xlink:href="#XMLID_91_"  style="overflow:visible;fill:#FFFFFF;"/>
				<clipPath id="XMLID_00000073721733993795024220000010327347019114306730_">
					<use xlink:href="#XMLID_91_"  style="overflow:visible;"/>
				</clipPath>
				<g style="opacity:0.7;clip-path:url(#XMLID_00000073721733993795024220000010327347019114306730_);">
					<path style="fill:none;stroke:#263238;stroke-linecap:round;stroke-linejoin:round;stroke-miterlimit:10;" d="M162.363,147.136
						c0,0,4.485-0.24,6.997-1.746s2.332,1.358,3.768,1.552c1.435,0.194,4.844-0.996,6.638-0.997
						c1.794-0.001,0.436,1.094,2.461,0.997c2.025-0.097,0.948,0.097,2.025-0.097c1.076-0.194,8.686-1.455,8.686-1.455
						s4.411-0.849,5.308-0.425c0.897,0.425,2.052,2.559,3.358,1.977c1.307-0.582,0.604-0.999,2.57-0.999
						c1.966,0,3.58,0.514,3.58,0.514s0.179-0.511,1.076-0.512c0.897-0.001,1.615,0,1.615,0s3.409,0.9,3.947,0.9
						c0.538,0,4.566-0.899,4.705-0.9c0.139-0.001,3.948-0.979,3.948-0.979s1.52,1.589,2.982,1.783
						c1.462,0.194,2.972-0.194,4.101,0.291c1.129,0.485,4.717-0.194,4.717-0.194s1.399,0,2.583,0.194
						c1.184,0.194,1.285,0.291,3.387-0.097c2.103-0.388,2.953-0.679,6.206-0.097s6.236-0.899,7.615-0.9
						c1.379-0.001,6.903,0.609,8.806,0.609s6.927,0.679,10.425,0.291c3.498-0.388,5.79,0.485,8.143,0.485
						c2.352,0,4.864-0.097,5.402-0.097c0.538,0,3.133-1.704,6.859-1.288c3.726,0.415,0.41-0.513,2.696,0
						c2.286,0.512,4.097,0.997,5.075,1.094c0.978,0.097,2.328-0.097,2.328-0.097l4.011-0.291c0,0,10.786,0,19.936,0"/>
					<path style="fill:none;stroke:#263238;stroke-linecap:round;stroke-linejoin:round;stroke-miterlimit:10;" d="M158.209,139.418
						c0,0,12.349,0,14.581-0.198c2.232-0.198,3.419-1.342,4.606-1.342s7.203,1.145,7.203,1.145s0.414-1.145,2.045-1.145
						s0.791,0.156,2.299,0.749s0.717,0,1.508,0.593c0.791,0.593,3.702,1.083,3.702,1.083s5.566,0.26,5.778-1.083
						c0.212-1.342,3.026,1.083,3.026,1.083s7.561-1.083,10.484-1.083c2.923,0,10.241-0.593,10.241-0.593s6.021,0.791,6.274,0.791
						c0.253,0,1.271,1.572,2.345,0.885c1.074-0.687,2.101-1.478,3.367-1.28c1.267,0.198,3.376,1.28,3.376,1.28l2.788-1.478
						l3.195,0.198c0,0,3.267,2.165,5.598,1.28c2.331-0.885,5.189-2.425,5.189-2.425l2.865,2.425h1.876l5.578-1.083
						c0,0,1.287,1.77,3.648,1.083c2.361-0.687,24.911,0,30.647,0c5.736,0,7.027-1.478,7.027-1.478l4.422,1.478h4.375h2.967h14.637"
						/>
				</g>
				<path style="opacity:0.2;clip-path:url(#XMLID_00000073721733993795024220000010327347019114306730_);" d="M352.865,144.502
					c-1.203,3.599-2.085,5.781-2.085,5.781H145.741c0,0-1.009-2.105-2.367-5.781H352.865z"/>
				<path style="opacity:0.2;clip-path:url(#XMLID_00000073721733993795024220000010327347019114306730_);" d="M357.143,129.361
					c-0.689,3.046-1.455,5.926-2.202,8.516H141.182c-0.747-2.541-1.503-5.403-2.163-8.516H357.143z"/>
				
					<use xlink:href="#XMLID_91_"  style="overflow:visible;fill:none;stroke:#263238;stroke-linecap:round;stroke-linejoin:round;stroke-miterlimit:10;"/>
			</g>
			<g>
				<g>
					<defs>
						<rect id="XMLID_94_" x="117.227" y="101.828" width="6.112" height="42.676"/>
					</defs>
					<use xlink:href="#XMLID_94_"  style="overflow:visible;fill:#757575;"/>
					<clipPath id="XMLID_00000134244716326012521700000009950533104210575510_">
						<use xlink:href="#XMLID_94_"  style="overflow:visible;"/>
					</clipPath>
					
						<rect x="117.267" y="131.845" style="opacity:0.2;clip-path:url(#XMLID_00000134244716326012521700000009950533104210575510_);" width="5.948" height="12.659"/>
					
						<use xlink:href="#XMLID_94_"  style="overflow:visible;fill:none;stroke:#263238;stroke-linecap:round;stroke-linejoin:round;stroke-miterlimit:10;"/>
				</g>
				<g>
					<defs>
						<rect id="XMLID_92_" x="373.184" y="101.828" width="6.112" height="42.676"/>
					</defs>
					<use xlink:href="#XMLID_92_"  style="overflow:visible;fill:#757575;"/>
					<clipPath id="XMLID_00000081605640853628778100000013390217177323010460_">
						<use xlink:href="#XMLID_92_"  style="overflow:visible;"/>
					</clipPath>
					
						<rect x="373.134" y="131.845" style="opacity:0.2;clip-path:url(#XMLID_00000081605640853628778100000013390217177323010460_);" width="6.162" height="12.659"/>
					
						<use xlink:href="#XMLID_92_"  style="overflow:visible;fill:none;stroke:#263238;stroke-linecap:round;stroke-linejoin:round;stroke-miterlimit:10;"/>
				</g>
			</g>
			<polygon style="fill:#999999;stroke:#263238;stroke-linecap:round;stroke-linejoin:round;stroke-miterlimit:10;" points="
				373.234,100.037 373.234,131.168 123.29,131.168 123.29,100.037 120.895,100.037 120.895,133.262 375.629,133.262 
				375.629,100.037 			"/>
		</g>
		<path style="fill:#92E3A9;stroke:#263238;stroke-linecap:round;stroke-linejoin:round;stroke-miterlimit:10;" d="M388.034,152.478
			v69.814c0,2.451-1.99,4.441-4.441,4.441H112.93c-2.451,0-4.441-1.99-4.441-4.441v-69.814c0-2.451,1.99-4.441,4.441-4.441h124.695
			v4.441c0,0-21.29,18.469-58.047,25.279c5.264,23.814,34.016,42.02,68.683,42.02c34.667,0,63.42-18.206,68.683-42.02
			c-36.757-6.811-58.047-25.279-58.047-25.279v-4.441h124.695C386.044,148.037,388.034,150.027,388.034,152.478z"/>
		<g>
			<defs>
				<path id="XMLID_90_" d="M388.036,152.475v69.818c0,2.454-1.988,4.442-4.442,4.442H112.927c-2.444,0-4.442-1.988-4.442-4.442
					v-69.818c0-2.444,1.998-4.442,4.442-4.442h124.698v4.442c0,0-21.291,18.468-58.042,25.287
					c5.257,23.812,34.016,42.018,68.683,42.018c34.666,0,63.416-18.206,68.683-42.018c-36.761-6.819-58.052-25.287-58.052-25.287
					v-4.442h124.698C386.048,148.033,388.036,150.031,388.036,152.475z"/>
			</defs>
			<use xlink:href="#XMLID_90_"  style="overflow:visible;fill:#92E3A9;"/>
			<clipPath id="XMLID_00000145779435573435447600000003220752302554697639_">
				<use xlink:href="#XMLID_90_"  style="overflow:visible;"/>
			</clipPath>
			<path style="opacity:0.2;clip-path:url(#XMLID_00000145779435573435447600000003220752302554697639_);fill:#FFFFFF;" d="
				M382.032,153.552v64.454c0,1.804-1.465,3.259-3.269,3.259H115.595c-1.804,0-3.259-1.455-3.259-3.259v-64.454
				c0-1.804,1.455-3.269,3.259-3.269h122.03v2.192c0,0-21.291,18.468-58.042,25.287c5.257,23.812,34.016,42.018,68.683,42.018
				c34.666,0,63.416-18.206,68.683-42.018c-36.761-6.819-58.052-25.287-58.052-25.287v-2.192h119.867
				C380.568,150.283,382.032,151.748,382.032,153.552z"/>
			
				<use xlink:href="#XMLID_90_"  style="overflow:visible;fill:none;stroke:#263238;stroke-linecap:round;stroke-linejoin:round;stroke-miterlimit:10;"/>
		</g>
	</g>
</g>
<g id="Right_hand">
	<g>
		<path style="opacity:0.2;fill-opacity:0.7;" d="M298.599,247.418l13.293,37.075c0,0,5.751-40.801,9.173-40.801
			s10.821,22.301,10.821,22.301s4.559-11.645,8.881-12.059c4.322-0.413,8.211,28.589,8.211,28.589l0.67,64.368l-5.447,97.35
			c0,0-34.77-38.301-44.909-48.166c-10.139-9.865-19.832-31.594-22.634-36.026c-2.802-4.432-3.507-27.5-3.507-27.5
			s5.557-6.377,5.241-15.919c0,0,8.162-13.663,7.654-23.74C285.54,282.813,284.307,243.659,298.599,247.418z"/>
		<g>
			<path style="fill:#FFFFFF;" d="M403.21,427.02l-52.64,27.69c-0.02-0.28-6.92-11.49-15.28-24.17
				c-3.78-5.74-7.86-11.77-11.73-17.23c-6.34-8.93-14.4-16.64-15.09-18.32c-2.04-4.98-17.42-23.72-20.87-31.02
				c-3.45-7.3-4.24-29.93-5.76-35.26c-1.52-5.34,2.84-10.42,6.34-12.9c3.5-2.49,7.17-8.97,7.17-8.97s-3.87-15.08-3.91-22.75
				c-0.05-7.68-2.65-34.44,0.47-36.94s5.91-1.45,6.69,0.27c2.56,5.67,4.86,19.93,6.83,26.5c1.97,6.58,5.67,25.63,7.49,26.99
				c1.82,1.36,5.06-3.77,5.06-3.77s0.31-15.97,0.98-22.63l-0.97-21.04c0,0-1.87-12.62,2.48-13.82c6-1.65,8.19,2.12,8.87,3.71
				c0.69,1.6,3.48,10.75,3.48,10.75s0.06,0.23,0.16,0.63c0.02,0.06,0.03,0.12,0.05,0.19c0.01,0.03,0.02,0.07,0.03,0.11
				c0.05,0.17,0.1,0.36,0.15,0.57c0.11,0.42,0.24,0.92,0.38,1.49c1.33,5.21,3.89,15.64,3.78,18.21c-0.15,3.47-1.36,22.69,0.35,26.68
				l2.66-26.55c0,0-4.39-20.44-3.13-23.39c1.26-2.96,7.14,0.31,7.84,1.47c0.7,1.16,6.42,8.18,7.44,10.86
				c1.01,2.68,1.01,2.68,1.01,2.68s1.41-6.34,4.72-4.69c3.32,1.65,3.72,9.71,3.95,13.23c0.22,3.52,2.63,26.16,3,26.2
				c0.38,0.04,4.19,11.8,3.67,19.57c-1.09,16.63,1.79,28.98,1.89,35.38c0.1,6.41-4.71,21.16-4.71,21.16s0,0,0.01,0.01
				c0.17,0.29,3.31,5.63,4.17,10.32c0.63,3.44,11.84,15.87,21.03,25.76c0.01,0.01,0.01,0.01,0.01,0.02
				C397.59,420.81,402.93,426.39,403.21,427.02z"/>
			<path style="opacity:0.4;fill:#92E3A9;" d="M335.3,430.54h-0.01c-3.78-5.74-7.86-11.77-11.73-17.23
				c-6.34-8.93-14.4-16.64-15.09-18.32c-2.04-4.98-17.42-23.72-20.87-31.02c-3.45-7.3-4.24-29.93-5.76-35.26
				c-1.52-5.34,2.84-10.42,6.34-12.9c3.5-2.49,7.17-8.97,7.17-8.97s-3.87-15.08-3.91-22.75c-0.05-7.68-2.65-34.44,0.47-36.94
				s5.91-1.45,6.69,0.27c2.56,5.67,4.86,19.93,6.83,26.5c1.97,6.58,5.67,25.63,7.49,26.99c1.82,1.36,5.06-3.77,5.06-3.77
				s0.31-15.97,0.98-22.63l-0.97-21.04c0,0-1.87-12.62,2.48-13.82c6-1.65,8.19,2.12,8.87,3.71c0.69,1.6,3.48,10.75,3.48,10.75
				s0.06,0.23,0.16,0.63c0.02,0.06,0.03,0.12,0.05,0.19c0.01,0.03,0.02,0.07,0.03,0.11c0.04,0.17,0.09,0.36,0.15,0.57
				c0.11,0.42,0.24,0.92,0.38,1.49c-1.55-2.45-3.68-4.54-6.53-5.09c-7.97-1.56-6.27,7.34-5.51,12.68
				c0.76,5.34-0.25,10.65-0.25,10.65l2-1.15c-1.44,2.57-3.5,23.93-3.5,28.68c-0.01,4.75-3.76,6.33-7.13,4.94
				c-3.38-1.38-4.57-23.19-7.13-27.1c-2.56-3.9-9.68,3.56-9.99,10.39c-0.3,6.82,6.05,27.2,4.54,32.05
				c-1.51,4.84-1.49,23.04-1.49,23.04l-1.84-4.69c0.12,0.64-0.03,2.79-3.85,9.12c-4.93,8.18-2.09,15.56-2.09,15.56
				c2.26,5.14,14.21,18.84,16.19,20.23c0,0,1.45-5.94,6-4.36c0,0-2.4,3.61-3.34,7.96c-0.94,4.36,8.55,7.15,11.52,11.3
				C323.03,403.88,324.22,411.59,335.3,430.54z"/>
			<path style="opacity:0.4;fill:#92E3A9;" d="M391.28,414.02c-9.36-9.43-25.83-18.41-24.83-20.76c1.34-3.16-0.36-9.89-3.24-15.35
				c-2.87-5.46,0.97-14.32,0.97-14.32l1.78,5.15c0,0,2.3-7.92,0.49-18.12c-1.82-10.21-3.24-6.62-3.24-6.62s0.37-9.2,2-14.22
				c1.64-5.02,2.98-17.21,0.75-24.42c-2.24-7.22-6.99-5.85-8.27-3.37c-1.27,2.48,0.09,12.15,1.14,15.32
				c1.05,3.16-3.42,8.5-3.51,4.54c-0.08-3.97-1.78-15.01-1.78-15.01l3.39-22.17l-3.39-17.61c0,0,1.41-6.34,4.72-4.69
				c3.32,1.65,3.72,9.71,3.95,13.23c0.22,3.52,2.63,26.16,3,26.2c0.38,0.04,4.19,11.8,3.67,19.57c-1.09,16.63,1.79,28.98,1.89,35.38
				c0.1,6.41-4.71,21.16-4.71,21.16s0,0,0.01,0.01c0.17,0.29,3.31,5.63,4.17,10.32c0.63,3.44,11.84,15.87,21.03,25.76
				C391.28,414.01,391.28,414.01,391.28,414.02z"/>
			<path style="opacity:0.4;fill:#92E3A9;" d="M352.53,264.38c0.19,0.5,0.35,0.91,0.47,1.24c-3.18-7.39-8.6-5.1-9.56-3
				c-1.03,2.24,2.27,15.13,3,17.15c0.73,2.02-2.9,18.15-3.43,23.49c-0.54,5.34-1.94,6.43-1.94,6.43c-3.59,0.27-3.97-9.64-4.01-11.04
				c0.15,1.47,0.36,2.64,0.66,3.34l2.66-26.55c0,0-4.39-20.44-3.13-23.39c1.26-2.96,7.14,0.31,7.84,1.47
				C345.79,254.68,351.51,261.7,352.53,264.38z"/>
			<g>
				<path style="fill:none;stroke:#263238;stroke-linecap:round;stroke-linejoin:round;stroke-miterlimit:10;" d="M403.209,427.022
					c-0.683-1.539-31.912-32.972-32.967-38.778c-0.877-4.825-4.185-10.334-4.185-10.334s4.816-14.754,4.717-21.158
					c-0.099-6.404-2.988-18.751-1.891-35.38c0.513-7.776-3.295-19.531-3.67-19.57c-0.375-0.039-2.782-22.687-3.006-26.207
					c-0.224-3.52-0.628-11.576-3.945-13.226c-3.317-1.65-4.721,4.69-4.721,4.69s0,0-1.013-2.679
					c-1.013-2.679-6.733-9.704-7.435-10.863c-0.703-1.16-6.585-4.427-7.842-1.469c-1.258,2.957,3.128,23.389,3.128,23.389
					l-2.656,26.551c-1.71-3.991-0.5-23.211-0.35-26.681c0.15-3.47-4.555-21.192-4.555-21.192s-2.79-9.156-3.473-10.751
					c-0.684-1.594-2.872-5.364-8.875-3.714c-4.352,1.197-2.481,13.822-2.481,13.822l0.971,21.036
					c-0.665,6.659-0.981,22.635-0.981,22.635s-3.234,5.131-5.058,3.77c-1.823-1.361-5.516-20.417-7.49-26.991
					c-1.974-6.574-4.27-20.834-6.832-26.505c-0.774-1.714-3.566-2.764-6.687-0.264c-3.12,2.5-0.519,29.261-0.475,36.935
					c0.044,7.674,3.909,22.749,3.909,22.749s-3.669,6.485-7.165,8.969c-3.496,2.484-7.857,7.566-6.341,12.902
					c1.516,5.337,2.312,27.96,5.76,35.262c3.448,7.302,18.825,26.04,20.868,31.022c0.689,1.682,8.748,9.386,15.092,18.315
					c12.453,17.528,26.982,40.993,27.006,41.407"/>
				<path style="fill:none;stroke:#263238;stroke-linecap:round;stroke-linejoin:round;stroke-miterlimit:10;" d="M295.346,306.837
					c0,0,2.48,12.29,2.39,14.348c0,0-2.168,9.498-2.184,15.647c0,0-3.229,5.005-4.078,7.228c-0.849,2.222-2.34,7.679-1.719,10.718"
					/>
				<path style="fill:none;stroke:#263238;stroke-linecap:round;stroke-linejoin:round;stroke-miterlimit:10;" d="M290.815,324.945
					c0,0,6.082,0.057,5.692,2.61"/>
				<path style="fill:none;stroke:#263238;stroke-linecap:round;stroke-linejoin:round;stroke-miterlimit:10;" d="M295.552,336.832
					c0,0-3.905-1.695-5.277,0.577"/>
				<path style="fill:none;stroke:#263238;stroke-linecap:round;stroke-linejoin:round;stroke-miterlimit:10;" d="M317.978,297.143
					c0,0-0.282,9.412-2.76,8.671"/>
				<path style="fill:none;stroke:#263238;stroke-linecap:round;stroke-linejoin:round;stroke-miterlimit:10;" d="M337.722,301.987
					c0,0-0.725,5.156,1.214,6.738"/>
				<path style="fill:none;stroke:#263238;stroke-linecap:round;stroke-linejoin:round;stroke-miterlimit:10;" d="M353.541,267.06
					c0,0,2.698,13.043,3.319,16.081c0.621,3.039-3.073,18.797-2.999,22.888c0.074,4.092,1.82,9.94,1.579,12.69"/>
				<path style="fill:none;stroke:#263238;stroke-linecap:round;stroke-linejoin:round;stroke-miterlimit:10;" d="M364.323,365.788
					c0,0-0.87,8.496,1.734,12.123"/>
				<path style="fill:none;stroke:#263238;stroke-linecap:round;stroke-linejoin:round;stroke-miterlimit:10;" d="M311.892,382.592
					c0,0-5.819,5.294-3.689,11.823"/>
				<path style="fill:none;stroke:#263238;stroke-linecap:round;stroke-linejoin:round;stroke-miterlimit:10;" d="M350.144,316.514
					c0.089,3.737-2.108,8.097-2.331,13.264"/>
				<path style="fill:none;stroke:#263238;stroke-linecap:round;stroke-linejoin:round;stroke-miterlimit:10;" d="M331.6,313.169
					c1.237,3.065-1.463,9.725-1.871,12.217c-0.408,2.492,0.629,5.8,0.629,5.8"/>
				<path style="fill:none;stroke:#263238;stroke-linecap:round;stroke-linejoin:round;stroke-miterlimit:10;" d="M366.446,323.714
					c-0.499,3.241-2.8,5.566-3.233,15.57"/>
				<path style="fill:none;stroke:#263238;stroke-linecap:round;stroke-linejoin:round;stroke-miterlimit:10;" d="M309.67,312.219
					c1.678,1.83,0.546,10.569,0.987,11.967"/>
				<path style="fill:none;stroke:#263238;stroke-linecap:round;stroke-linejoin:round;stroke-miterlimit:10;" d="M340.965,261.871
					c0,0,5.725-4.191,10.645,0.752"/>
				<path style="fill:none;stroke:#263238;stroke-linecap:round;stroke-linejoin:round;stroke-miterlimit:10;" d="M321.304,252.235
					c0,0,0.98-1.661,5.827-1.254c4.847,0.408,5.686,3.133,5.686,3.133"/>
				<path style="fill:#FFFFFF;stroke:#263238;stroke-linecap:round;stroke-linejoin:round;stroke-miterlimit:10;" d="
					M307.193,280.788c0,0-1.628-2.391-5.892-1.599c-4.264,0.792-6.174,6.829-6.174,6.829"/>
				<path style="fill:none;stroke:#263238;stroke-linecap:round;stroke-linejoin:round;stroke-miterlimit:10;" d="M365.213,301.802
					c0,0-3.566-5.162-7.839-2.952"/>
			</g>
		</g>
	</g>
</g>
<g id="Left_hand">
	<g>
		<path style="opacity:0.2;fill-opacity:0.7;" d="M213.549,263.945c6.038,4.651,0.941,33.198,0.941,33.198l0.535,9.286l10.286-4.441
			l4.644,19.861c0,0-0.116,7.275,3.695,9.972c0,0,0.936,16.308,0,28.228c-0.936,11.919-20.032,25.929-26.572,38.441
			c-6.54,12.512-49.382,49.316-49.382,49.316l-36.278-17.265l26.237-105.937l23.491-30.209l13.932-34.756
			c0,0,2.394,22.701,1.015,37.977L213.549,263.945z"/>
		<g>
			<path style="fill:#FFFFFF;" d="M223.65,327.4c-0.91,4.38,1.28,28.39,0.9,31.63c-0.37,3.23-19.48,24.95-20.44,26.65
				c-0.97,1.7-13.73,9.04-16.7,12.51c-13.88,16.19-21.46,31.1-27.55,46.05c0,0.02,0,0.03-0.01,0.04c-1.17,2.88-2.29,5.77-3.39,8.67
				l-55.08-32c4.63-5.74,9.02-10.84,12.98-15.48c8.05-9.41,14.37-16.94,17.49-24.05c0.52-1.19,1.98-3.36,3.28-5.2
				c1.24-1.76,2.35-3.21,2.35-3.21s-3.99-11.27-3.07-14.81c0.91-3.54-1.15-32.64-1.15-32.64s-2.71-19.81-5.38-24.81
				c-0.67-1.26-0.91-2.67-0.86-4.22c0.13-4.57,2.78-10.33,4.08-17.05c1.74-8.97,0.9-13.45,6.36-10.34
				c5.47,3.11,2.91,22.02,2.91,22.02l8.25,18.28c2.17-4.42-0.03-17.32-0.11-20.37c-0.01-0.5-0.04-1.33-0.08-2.41
				c-0.17-5.26-0.52-16.21-0.07-20.53c0.02-0.24,0.05-0.46,0.08-0.66c0.67-4.46,3.06-18.65,4.58-20.23
				c2.26-2.34,5.85-4.31,9.23,1.02c1.89,2.98,1.08,26.79,1.08,26.79s7.84-9.46,10.22-11.77c2.39-2.3,9.6-6.53,11.53-1.64
				c1.92,4.89-5.19,19.96-5.19,19.96c1.49,3.5,1.67,13.19,1.67,13.19s3.37,12.11,5.44,11.99c0.03,0,0.06,0,0.09-0.01
				c0.6-0.13,1.26-2.33,1.95-5.42c1.7-7.57,3.55-20.52,4.99-21.65c0.22-0.18,0.55-0.46,0.96-0.8c0.05-0.06,0.1-0.11,0.16-0.15
				c0.12-0.11,0.24-0.22,0.37-0.33c3.54-3.15,10.97-10.15,10.97-10.15s0.53-3.35,7.06-2.32c6.52,1.02-2.9,20.3-2.9,20.3
				c-1.31,6.13-3.32,21.9-3.32,21.9c-0.61,6.56-0.25,24.19-0.25,24.19s3.09-10.26,2.89-13.96c-0.19-3.7,6.14-12.9,7.98-15.26
				c1.85-2.36,10.16-1.53,7.85,2.96C223.5,308.58,224.56,323.02,223.65,327.4z"/>
			<path style="opacity:0.4;fill:#92E3A9;" d="M131.85,381.42c0.52-1.19,1.98-3.36,3.28-5.2c0,0-3.25,8.96-3.57,13.79
				c-0.21,3.16-8.53,8.63-17.2,15.46C122.41,396.06,128.73,388.53,131.85,381.42z"/>
			<path style="opacity:0.4;fill:#92E3A9;" d="M135.13,376.22c1.24-1.76,2.35-3.21,2.35-3.21s-3.99-11.27-3.07-14.81
				c0.91-3.54-1.15-32.64-1.15-32.64s-2.71-19.81-5.38-24.81l6.22,10.87c0,0-0.61,8.59,1.16,13.3c1.77,4.7,3.95,19.08,3.95,19.08
				s-2.62,12.08-1.73,16.43c0.88,4.35,4.9,2.77,4.9,2.77S144.4,371.16,135.13,376.22z"/>
			<path style="opacity:0.4;fill:#92E3A9;" d="M149.64,294.39c4.29,25.12-3.1,18.17-5.77,12.75c-2.66-5.42-8.94-15.68-13.66-13.49
				c-1.47,0.68-2.48,1.74-3.19,2.88c0.13-4.57,2.78-10.33,4.08-17.05c1.74-8.97,0.9-13.45,6.36-10.34
				c5.47,3.11,2.91,22.02,2.91,22.02l8.25,18.28c2.17-4.42-0.03-17.32-0.11-20.37c-0.01-0.5-0.04-1.33-0.08-2.41
				C148.76,289,149.16,291.57,149.64,294.39z"/>
			<path style="opacity:0.4;fill:#92E3A9;" d="M160.14,269.57c0,0-4.63-6.06-8.65-5.75c-1.29,0.1-2.39,0.7-3.13,2.31
				c0.02-0.24,0.05-0.46,0.08-0.66c0.67-4.46,3.06-18.65,4.58-20.23c2.26-2.34,5.85-4.31,9.23,1.02c1.89,2.98,1.08,26.79,1.08,26.79
				s7.84-9.46,10.22-11.77c2.39-2.3,9.6-6.53,11.53-1.64c1.92,4.89-5.19,19.96-5.19,19.96c1.49,3.5,1.67,13.19,1.67,13.19
				s3.37,12.11,5.44,11.99c-4.56,8.58-7.6-10.39-7.6-10.39c0.68-3.92-1.74-12.42-1.5-14.66c0.25-2.23-4.2-10.16-11.68-7.97
				c-7.48,2.18-2.08,31.72-2.08,31.72c-2.48,4.11-2.5,7.71-2.5,7.82c-2.31-2.85,0-11.01,0-11.01
				C159.59,292.5,160.14,269.57,160.14,269.57z"/>
			<path style="opacity:0.4;fill:#92E3A9;" d="M194.99,276.9c-3.19,3.35-2.75,11.82-5.95,22.45c1.7-7.57,3.55-20.52,4.99-21.65
				C194.25,277.52,194.58,277.24,194.99,276.9z"/>
			<path style="opacity:0.4;fill:#92E3A9;" d="M223.65,327.4c-0.91,4.38,1.28,28.39,0.9,31.63c-0.37,3.23-19.48,24.95-20.44,26.65
				c-0.97,1.7-13.73,9.04-16.7,12.51c-13.88,16.19-21.46,31.1-27.55,46.05c1.77-5.89,4.59-14.45,8.29-22.76
				c6.57-14.77,9.25-17.4,13.19-21.62c3.94-4.23,3.51-13.19,3.51-13.19s3.89-1.05,8.88-1.05c4.99,0,19.8-21.1,24.89-24.8
				c5.09-3.69,5.97-3.7,0-11.86s-4.3,1.31-6.1,0.96c-1.79-0.35-2.78,3.63-2.78,3.63c-0.63-8.32-5.97-18.04-7.13-20.42
				c-1.16-2.37,2.74-16.61,1.94-20.56c-0.8-3.95,3.44-27.97,3.44-27.97s-0.53-9.23-8.89-9.26c-1.53-0.01-2.68,0.37-3.58,1.08
				c3.54-3.15,10.97-10.15,10.97-10.15s0.53-3.35,7.06-2.32c6.52,1.02-2.9,20.3-2.9,20.3c-1.31,6.13-3.32,21.9-3.32,21.9
				c-0.61,6.56-0.25,24.19-0.25,24.19s3.09-10.26,2.89-13.96c-0.19-3.7,6.14-12.9,7.98-15.26c1.85-2.36,10.16-1.53,7.85,2.96
				C223.5,308.58,224.56,323.02,223.65,327.4z"/>
			<g>
				<path style="fill:none;stroke:#263238;stroke-linecap:round;stroke-linejoin:round;stroke-miterlimit:10;" d="M156.46,452.947
					c6.791-17.922,14.375-35.431,30.949-54.76c2.968-3.461,15.733-10.807,16.696-12.507c0.963-1.7,20.074-23.417,20.449-26.653
					c0.375-3.236-1.816-27.245-0.905-31.626c0.912-4.381-0.148-18.823,2.154-23.317c2.302-4.493-6.007-5.325-7.853-2.964
					c-1.846,2.361-8.173,11.563-7.977,15.262c0.196,3.699-2.896,13.955-2.896,13.955s-0.358-17.625,0.255-24.189
					c0,0,2.006-15.77,3.313-21.896c0,0,9.427-19.286,2.903-20.306c-6.524-1.021-7.064,2.322-7.064,2.322s-10.424,9.835-12.457,11.43
					c-2.033,1.594-4.864,26.608-6.933,27.078c-2.07,0.47-5.534-11.984-5.534-11.984s-0.18-9.687-1.669-13.192
					c0,0,7.109-15.072,5.186-19.961c-1.923-4.889-9.136-0.655-11.524,1.647c-2.388,2.302-10.228,11.767-10.228,11.767
					s0.817-23.815-1.072-26.791c-3.384-5.33-6.979-3.359-9.236-1.017c-1.521,1.579-3.907,15.766-4.582,20.229
					c-0.675,4.463-0.008,20.541,0.072,23.596c0.08,3.055,2.283,15.947,0.108,20.37l-8.25-18.282c0,0,2.568-18.909-2.902-22.019
					c-5.47-3.11-4.625,1.368-6.364,10.342c-1.738,8.974-5.883,16.258-3.217,21.265c2.666,5.007,5.375,24.818,5.375,24.818
					s2.065,29.098,1.149,32.636c-0.916,3.538,3.07,14.808,3.07,14.808s-4.617,6.091-5.632,8.408
					c-4.653,10.626-16.448,22.166-30.462,39.532"/>
				<path style="fill:none;stroke:#263238;stroke-linecap:round;stroke-linejoin:round;stroke-miterlimit:10;" d="M163.327,273.052
					c0,0-1.65,2.033-1.678,5.833s2.492,24.598,2.492,24.598s-1.805,2.135-1.901,4.022"/>
				<path style="fill:none;stroke:#263238;stroke-linecap:round;stroke-linejoin:round;stroke-miterlimit:10;" d="M207.078,330.337
					c0,0,0.325,5.52,2.669,10.141c2.344,4.621,1.578,7.168,0.785,9.901c-0.794,2.733-0.849,7.29-0.849,7.29"/>
				<path style="fill:none;stroke:#263238;stroke-linecap:round;stroke-linejoin:round;stroke-miterlimit:10;" d="M149.497,305.329
					c0,0,1.743,5.522-1.49,8.139"/>
				<path style="fill:none;stroke:#263238;stroke-linecap:round;stroke-linejoin:round;stroke-miterlimit:10;" d="M187.095,304.775
					c0,0,0.337,2.166-2.737,2.367"/>
				<path style="fill:none;stroke:#263238;stroke-linecap:round;stroke-linejoin:round;stroke-miterlimit:10;" d="M207.71,279.767
					c0,0-7.7-8.393-13.682-2.07"/>
				<path style="fill:none;stroke:#263238;stroke-linecap:round;stroke-linejoin:round;stroke-miterlimit:10;" d="M176.511,275.046
					c0,0-3.546-4.489-6.631-4.216c-3.085,0.273-7.24,2.147-7.712,4.619"/>
				<path style="fill:none;stroke:#263238;stroke-linecap:round;stroke-linejoin:round;stroke-miterlimit:10;" d="M211.191,347.679
					c0,0,1.997,2.74,2.664,5.875"/>
				<path style="fill:none;stroke:#263238;stroke-linecap:round;stroke-linejoin:round;stroke-miterlimit:10;" d="M191.188,313.54
					c-2.385,4.45-1.244,11.994-2.129,14.071"/>
				<path style="fill:none;stroke:#263238;stroke-linecap:round;stroke-linejoin:round;stroke-miterlimit:10;" d="M165.868,306.151
					c0.564,2.558-1.208,6.731-1.482,9.795c-0.273,3.064,2.241,7.819,1.78,12.124"/>
				<path style="fill:none;stroke:#263238;stroke-linecap:round;stroke-linejoin:round;stroke-miterlimit:10;" d="M149.637,316.629
					c0,0-2.091,4.819-1.983,7.974c0.109,3.155,1.212,10.148,1.212,10.148"/>
				<path style="fill:none;stroke:#263238;stroke-linecap:round;stroke-linejoin:round;stroke-miterlimit:10;" d="M134.266,316.396
					c0,0-0.759,5.021,0.994,8.519c1.753,3.499,3.473,10.987,3.473,10.987"/>
				<path style="fill:none;stroke:#263238;stroke-linecap:round;stroke-linejoin:round;stroke-miterlimit:10;" d="M137.478,373.007
					c0,0,2.818-0.53,3.471-4.086"/>
				<path style="fill:none;stroke:#263238;stroke-linecap:round;stroke-linejoin:round;stroke-miterlimit:10;" d="M187.754,388.244
					c0,0,1.904,7.067-1.757,11.611"/>
				<path style="fill:none;stroke:#263238;stroke-linecap:round;stroke-linejoin:round;stroke-miterlimit:10;" d="M127.073,295.694
					c0,0,5.382-5.256,9.451-0.822"/>
				<path style="fill:none;stroke:#263238;stroke-linecap:round;stroke-linejoin:round;stroke-miterlimit:10;" d="M148.437,265.473
					c0,0,4.007-4.189,8.683,0.288"/>
			</g>
		</g>
	</g>
</g>
</svg>
